<?xml version="1.0" encoding="UTF-8" standalone="no"?>
<svg
   width="878.14227"
   height="586.93408"
   overflow="hidden"
   version="1.1"
   id="svg19"
   sodipodi:docname="ContactModel.svg"
   inkscape:version="1.4.3 (0d15f75, 2025-12-25)"
   xmlns:inkscape="http://www.inkscape.org/namespaces/inkscape"
   xmlns:sodipodi="http://sodipodi.sourceforge.net/DTD/sodipodi-0.dtd"
   xmlns="http://www.w3.org/2000/svg"
   xmlns:svg="http://www.w3.org/2000/svg">
  <sodipodi:namedview
     id="namedview19"
     pagecolor="#ffffff"
     bordercolor="#000000"
     borderopacity="0.25"
     inkscape:showpageshadow="2"
     inkscape:pageopacity="0.0"
     inkscape:pagecheckerboard="0"
     inkscape:deskcolor="#d1d1d1"
     inkscape:zoom="1.6208333"
     inkscape:cx="479.07455"
     inkscape:cy="310.64267"
     inkscape:window-width="2560"
     inkscape:window-height="1369"
     inkscape:window-x="2552"
     inkscape:window-y="-8"
     inkscape:window-maximized="1"
     inkscape:current-layer="svg19" />
  <defs
     id="defs1">
    <clipPath
       id="clip0">
      <rect
         x="0"
         y="0"
         width="960"
         height="720"
         id="rect1" />
    </clipPath>
  </defs>
  <g
     clip-path="url(#clip0)"
     id="g19"
     transform="translate(-20.143582,-59.012475)">
    <rect
       x="60.462727"
       y="102.41645"
       width="800.82269"
       height="503.44476"
       fill="#d7e4bd"
       id="rect2" />
    <rect
       x="21.476917"
       y="60.34581"
       width="875.47559"
       height="584.2674"
       stroke="#ffffff"
       stroke-width="2.66667"
       stroke-linejoin="round"
       stroke-miterlimit="10"
       fill="#ffffff"
       id="rect3" />
    <path
       d="m 478.23,357.745 c -0.48,0 -0.9,0.089 -1.262,0.269 -0.361,0.18 -0.664,0.418 -0.908,0.715 -0.243,0.297 -0.432,0.642 -0.566,1.037 -0.133,0.395 -0.208,0.807 -0.224,1.236 h 5.754 c 0.024,-1.015 -0.202,-1.812 -0.678,-2.39 -0.475,-0.578 -1.181,-0.867 -2.116,-0.867 z m 10.997,-1.512 c 0.282,0 0.563,0.023 0.844,0.07 0.281,0.047 0.535,0.106 0.762,0.176 0.226,0.07 0.42,0.146 0.58,0.228 0.16,0.082 0.281,0.155 0.363,0.217 0.082,0.063 0.137,0.117 0.164,0.164 0.028,0.047 0.047,0.1 0.059,0.158 0.012,0.059 0.023,0.131 0.035,0.217 0.012,0.086 0.018,0.192 0.018,0.317 0,0.133 -0.006,0.248 -0.018,0.345 -0.012,0.098 -0.031,0.178 -0.059,0.241 -0.027,0.062 -0.06,0.107 -0.099,0.134 -0.039,0.028 -0.082,0.041 -0.129,0.041 -0.07,0 -0.172,-0.043 -0.305,-0.128 -0.133,-0.086 -0.304,-0.178 -0.515,-0.276 -0.211,-0.098 -0.459,-0.189 -0.744,-0.275 -0.286,-0.086 -0.612,-0.129 -0.979,-0.129 -0.328,0 -0.617,0.037 -0.867,0.111 -0.25,0.074 -0.455,0.18 -0.615,0.317 -0.161,0.136 -0.282,0.298 -0.364,0.486 -0.082,0.187 -0.123,0.391 -0.123,0.609 0,0.305 0.078,0.561 0.235,0.768 0.156,0.207 0.359,0.389 0.609,0.545 0.25,0.156 0.535,0.297 0.855,0.422 0.321,0.125 0.647,0.254 0.979,0.386 0.332,0.133 0.66,0.282 0.984,0.446 0.325,0.164 0.612,0.363 0.862,0.597 0.25,0.235 0.451,0.516 0.603,0.844 0.153,0.328 0.229,0.719 0.229,1.172 0,0.539 -0.1,1.019 -0.299,1.441 -0.199,0.422 -0.483,0.778 -0.85,1.067 -0.367,0.289 -0.804,0.508 -1.312,0.656 -0.508,0.148 -1.067,0.223 -1.676,0.223 -0.375,0 -0.732,-0.03 -1.072,-0.088 -0.34,-0.059 -0.645,-0.133 -0.914,-0.223 -0.27,-0.09 -0.498,-0.183 -0.686,-0.281 -0.187,-0.098 -0.324,-0.186 -0.41,-0.264 -0.086,-0.078 -0.148,-0.187 -0.188,-0.328 -0.039,-0.141 -0.058,-0.332 -0.058,-0.574 0,-0.149 0.008,-0.274 0.023,-0.375 0.016,-0.102 0.035,-0.184 0.059,-0.246 0.023,-0.063 0.057,-0.108 0.1,-0.135 0.042,-0.027 0.091,-0.041 0.146,-0.041 0.086,0 0.213,0.053 0.381,0.158 0.168,0.106 0.375,0.221 0.621,0.346 0.246,0.125 0.537,0.24 0.873,0.346 0.336,0.105 0.723,0.158 1.16,0.158 0.328,0 0.625,-0.035 0.891,-0.106 0.265,-0.07 0.496,-0.174 0.691,-0.31 0.196,-0.137 0.346,-0.311 0.451,-0.522 0.106,-0.211 0.159,-0.461 0.159,-0.75 0,-0.297 -0.077,-0.547 -0.229,-0.75 -0.152,-0.203 -0.353,-0.383 -0.603,-0.539 -0.25,-0.156 -0.532,-0.295 -0.844,-0.416 -0.313,-0.121 -0.635,-0.248 -0.967,-0.381 -0.332,-0.132 -0.656,-0.283 -0.973,-0.451 -0.316,-0.168 -0.599,-0.373 -0.849,-0.615 -0.25,-0.242 -0.451,-0.531 -0.604,-0.867 -0.152,-0.336 -0.228,-0.739 -0.228,-1.207 0,-0.414 0.08,-0.811 0.24,-1.19 0.16,-0.379 0.4,-0.711 0.721,-0.996 0.32,-0.285 0.72,-0.513 1.201,-0.685 0.48,-0.172 1.041,-0.258 1.681,-0.258 z m -10.898,0 c 0.828,0 1.533,0.133 2.115,0.398 0.582,0.266 1.061,0.623 1.436,1.073 0.375,0.449 0.65,0.976 0.826,1.582 0.176,0.605 0.264,1.252 0.264,1.939 v 0.352 c 0,0.304 -0.077,0.521 -0.23,0.65 -0.153,0.129 -0.328,0.193 -0.524,0.193 h -6.946 c 0,0.586 0.059,1.114 0.177,1.582 0.118,0.469 0.314,0.871 0.589,1.207 0.275,0.336 0.632,0.594 1.071,0.774 0.44,0.18 0.978,0.269 1.614,0.269 0.502,0 0.95,-0.041 1.342,-0.123 0.393,-0.082 0.732,-0.174 1.019,-0.275 0.286,-0.102 0.522,-0.193 0.706,-0.275 0.185,-0.083 0.324,-0.124 0.418,-0.124 0.055,0 0.104,0.014 0.148,0.041 0.043,0.028 0.076,0.069 0.1,0.124 0.023,0.054 0.041,0.13 0.053,0.228 0.011,0.098 0.017,0.217 0.017,0.357 0,0.102 -0.004,0.19 -0.011,0.264 -0.008,0.074 -0.018,0.141 -0.03,0.199 -0.011,0.059 -0.031,0.112 -0.058,0.159 -0.028,0.046 -0.063,0.091 -0.106,0.134 -0.043,0.043 -0.17,0.114 -0.381,0.211 -0.211,0.098 -0.484,0.194 -0.82,0.287 -0.336,0.094 -0.725,0.178 -1.166,0.252 -0.441,0.075 -0.912,0.112 -1.412,0.112 -0.867,0 -1.627,-0.121 -2.279,-0.364 -0.653,-0.242 -1.202,-0.601 -1.647,-1.078 -0.445,-0.476 -0.781,-1.074 -1.008,-1.793 -0.226,-0.718 -0.339,-1.554 -0.339,-2.508 0,-0.906 0.117,-1.72 0.351,-2.443 0.234,-0.723 0.572,-1.336 1.014,-1.84 0.441,-0.504 0.974,-0.89 1.599,-1.16 0.625,-0.269 1.325,-0.404 2.098,-0.404 z M 463.208,354.1 v 5.109 h 1.969 c 0.531,0 0.99,-0.064 1.377,-0.193 0.386,-0.129 0.709,-0.309 0.966,-0.539 0.258,-0.231 0.448,-0.502 0.569,-0.814 0.121,-0.313 0.181,-0.653 0.181,-1.02 0,-0.594 -0.132,-1.096 -0.398,-1.506 -0.266,-0.41 -0.711,-0.705 -1.336,-0.885 -0.195,-0.054 -0.416,-0.093 -0.662,-0.117 -0.246,-0.023 -0.568,-0.035 -0.967,-0.035 z m 33.18,-0.527 c 0.195,0 0.355,0.007 0.48,0.023 0.125,0.016 0.223,0.041 0.293,0.076 0.07,0.035 0.121,0.076 0.152,0.123 0.032,0.047 0.047,0.098 0.047,0.153 v 2.507 h 2.707 c 0.063,0 0.117,0.014 0.164,0.041 0.047,0.028 0.088,0.075 0.123,0.141 0.036,0.067 0.061,0.151 0.077,0.252 0.015,0.102 0.023,0.227 0.023,0.375 0,0.281 -0.035,0.484 -0.105,0.609 -0.071,0.125 -0.165,0.188 -0.282,0.188 h -2.707 v 5.883 c 0,0.726 0.108,1.275 0.323,1.646 0.214,0.371 0.599,0.557 1.154,0.557 0.18,0 0.34,-0.018 0.48,-0.053 0.141,-0.035 0.266,-0.072 0.375,-0.111 0.11,-0.039 0.203,-0.076 0.282,-0.112 0.078,-0.035 0.148,-0.052 0.21,-0.052 0.04,0 0.077,0.01 0.112,0.029 0.035,0.02 0.062,0.057 0.082,0.111 0.019,0.055 0.037,0.129 0.053,0.223 0.015,0.094 0.023,0.211 0.023,0.352 0,0.226 -0.016,0.406 -0.047,0.539 -0.031,0.132 -0.078,0.23 -0.14,0.293 -0.063,0.062 -0.157,0.121 -0.282,0.175 -0.125,0.055 -0.267,0.1 -0.427,0.135 -0.161,0.035 -0.331,0.065 -0.51,0.088 -0.18,0.024 -0.36,0.035 -0.539,0.035 -0.547,0 -1.016,-0.072 -1.407,-0.217 -0.39,-0.144 -0.71,-0.363 -0.96,-0.656 -0.25,-0.293 -0.432,-0.664 -0.545,-1.113 -0.114,-0.449 -0.17,-0.979 -0.17,-1.588 v -6.164 h -1.477 c -0.117,0 -0.211,-0.063 -0.281,-0.188 -0.07,-0.125 -0.106,-0.328 -0.106,-0.609 0,-0.148 0.01,-0.273 0.03,-0.375 0.019,-0.101 0.045,-0.185 0.076,-0.252 0.031,-0.066 0.072,-0.113 0.123,-0.141 0.051,-0.027 0.107,-0.041 0.17,-0.041 h 1.465 v -2.507 c 0,-0.055 0.013,-0.106 0.041,-0.153 0.027,-0.047 0.078,-0.088 0.152,-0.123 0.074,-0.035 0.174,-0.06 0.299,-0.076 0.125,-0.016 0.281,-0.023 0.469,-0.023 z m -34.446,-1.137 h 3.223 c 0.383,0 0.701,0.01 0.955,0.029 0.254,0.02 0.482,0.041 0.686,0.065 0.586,0.101 1.103,0.261 1.552,0.48 0.45,0.219 0.826,0.496 1.131,0.832 0.305,0.336 0.533,0.721 0.686,1.154 0.152,0.434 0.228,0.913 0.228,1.436 0,0.508 -0.068,0.963 -0.205,1.365 -0.137,0.403 -0.334,0.758 -0.592,1.067 -0.257,0.308 -0.566,0.576 -0.925,0.802 -0.36,0.227 -0.762,0.418 -1.207,0.575 0.25,0.109 0.476,0.248 0.679,0.416 0.203,0.168 0.393,0.369 0.569,0.603 0.175,0.235 0.341,0.504 0.498,0.809 0.156,0.304 0.312,0.648 0.468,1.031 l 1.36,3.34 c 0.109,0.281 0.179,0.478 0.211,0.592 0.031,0.113 0.047,0.201 0.047,0.263 0,0.063 -0.012,0.118 -0.036,0.164 -0.023,0.047 -0.074,0.086 -0.152,0.118 -0.078,0.031 -0.187,0.054 -0.328,0.07 -0.141,0.016 -0.328,0.023 -0.563,0.023 -0.203,0 -0.369,-0.007 -0.498,-0.023 -0.129,-0.016 -0.232,-0.041 -0.31,-0.076 -0.078,-0.035 -0.139,-0.084 -0.182,-0.147 -0.043,-0.062 -0.08,-0.14 -0.111,-0.234 l -1.395,-3.574 c -0.164,-0.407 -0.334,-0.78 -0.509,-1.12 -0.176,-0.339 -0.385,-0.632 -0.627,-0.878 -0.243,-0.247 -0.528,-0.438 -0.856,-0.575 -0.328,-0.136 -0.722,-0.205 -1.183,-0.205 h -1.348 v 6.457 c 0,0.063 -0.018,0.118 -0.053,0.164 -0.035,0.047 -0.09,0.084 -0.164,0.112 -0.074,0.027 -0.176,0.05 -0.305,0.07 -0.128,0.02 -0.291,0.029 -0.486,0.029 -0.195,0 -0.357,-0.009 -0.486,-0.029 -0.129,-0.02 -0.233,-0.043 -0.311,-0.07 -0.078,-0.028 -0.133,-0.065 -0.164,-0.112 -0.031,-0.046 -0.047,-0.101 -0.047,-0.164 v -14.039 c 0,-0.304 0.08,-0.517 0.241,-0.638 0.16,-0.122 0.33,-0.182 0.509,-0.182 z"
       stroke="#ffffff"
       stroke-linejoin="round"
       stroke-miterlimit="10"
       fill="#ffffff"
       fill-rule="evenodd"
       id="path3" />
    <text
       fill="#000000"
       fill-opacity="0"
       font-family="Arial, Arial_MSFontService, sans-serif"
       font-size="15.3867px"
       x="461.19199"
       y="365.89899"
       id="text3">Rest</text>
    <path
       d="M 616,347 V 481.742"
       stroke="#a6a6a6"
       stroke-width="8"
       stroke-linejoin="round"
       stroke-miterlimit="10"
       fill="none"
       fill-rule="evenodd"
       id="path4" />
    <path
       d="M 525.5,376.649 537,358.5 l 11.5,18.149 h -5.75 V 415.5 h -11.5 v -38.851 z"
       stroke="#151617"
       stroke-width="3"
       stroke-miterlimit="8"
       fill="#0070c0"
       fill-rule="evenodd"
       id="path5" />
    <rect
       x="185.5"
       y="482.5"
       width="552"
       height="134"
       stroke="#000000"
       stroke-width="3"
       stroke-linejoin="round"
       stroke-miterlimit="10"
       fill="#96adce"
       id="rect5" />
    <text
       font-family="'Trebuchet MS', 'Trebuchet MS_MSFontService', sans-serif"
       font-weight="400"
       font-size="53.3333px"
       transform="translate(445.351,565)"
       id="text5">A</text>
    <path
       d="m 412.5,222 c 0,-69.864 56.188,-126.4999 125.5,-126.4999 69.312,0 125.5,56.6359 125.5,126.4999 0,69.864 -56.188,126.5 -125.5,126.5 -69.312,0 -125.5,-56.636 -125.5,-126.5 z"
       stroke="#151617"
       stroke-width="3"
       stroke-linejoin="round"
       stroke-miterlimit="10"
       fill="#96adce"
       fill-rule="evenodd"
       id="path6" />
    <text
       font-family="'Trebuchet MS', 'Trebuchet MS_MSFontService', sans-serif"
       font-weight="400"
       font-size="53.3333px"
       transform="translate(522.413,238)"
       id="text6">B</text>
    <path
       d="m 524.5,415 c 0,-6.351 5.373,-11.5 12,-11.5 6.628,0 12,5.149 12,11.5 0,6.351 -5.372,11.5 -12,11.5 -6.627,0 -12,-5.149 -12,-11.5 z"
       stroke="#151617"
       stroke-width="3"
       stroke-linejoin="round"
       stroke-miterlimit="10"
       fill="#ff0000"
       fill-rule="evenodd"
       id="path7" />
    <path
       d="m 524.5,347.5 c 0,-6.627 5.373,-12 12,-12 6.628,0 12,5.373 12,12 0,6.627 -5.372,12 -12,12 -6.627,0 -12,-5.373 -12,-12 z"
       stroke="#151617"
       stroke-width="3"
       stroke-linejoin="round"
       stroke-miterlimit="10"
       fill="#ffc000"
       fill-rule="evenodd"
       id="path8" />
    <path
       d="m 524.5,484 c 0,-6.351 5.149,-11.5 11.5,-11.5 6.351,0 11.5,5.149 11.5,11.5 0,6.351 -5.149,11.5 -11.5,11.5 -6.351,0 -11.5,-5.149 -11.5,-11.5 z"
       stroke="#151617"
       stroke-width="3"
       stroke-linejoin="round"
       stroke-miterlimit="10"
       fill="#ffc000"
       fill-rule="evenodd"
       id="path9" />
    <path
       d="m 547.5,348.5 h 83.731"
       stroke="#000000"
       stroke-width="3"
       stroke-linejoin="round"
       stroke-miterlimit="10"
       fill="none"
       fill-rule="evenodd"
       id="path10" />
    <text
       font-family="Calibri, Calibri_MSFontService, sans-serif"
       font-weight="400"
       font-size="26.6667px"
       transform="translate(636.694,410)"
       id="text10">Contact</text>
    <text
       font-family="Calibri, Calibri_MSFontService, sans-serif"
       font-weight="400"
       font-size="26.6667px"
       transform="translate(636.694,442)"
       id="text11">Distance</text>
    <text
       font-family="Calibri, Calibri_MSFontService, sans-serif"
       font-weight="400"
       font-size="26.6667px"
       transform="translate(351.467,423)"
       id="text12">Contact Center</text>
    <text
       font-family="Calibri, Calibri_MSFontService, sans-serif"
       font-weight="400"
       font-size="26.6667px"
       transform="translate(220.559,189)"
       id="text13">Contact Normal</text>
    <text
       font-family="Calibri, Calibri_MSFontService, sans-serif"
       font-weight="400"
       font-size="26.6667px"
       transform="translate(220.559,221)"
       id="text14">(unit</text>
    <text
       font-family="Calibri, Calibri_MSFontService, sans-serif"
       font-weight="400"
       font-size="26.6667px"
       transform="translate(277.892,221)"
       id="text15">length</text>
    <text
       font-family="Calibri, Calibri_MSFontService, sans-serif"
       font-weight="400"
       font-size="26.6667px"
       transform="translate(346.486,221)"
       id="text16">)</text>
    <text
       font-family="Calibri, Calibri_MSFontService, sans-serif"
       font-weight="400"
       font-size="26.6667px"
       transform="translate(220.559,277)"
       id="text17">Body Frame</text>
    <text
       font-family="Calibri, Calibri_MSFontService, sans-serif"
       font-weight="400"
       font-size="26.6667px"
       transform="translate(220.559,309)"
       id="text18">Contact Points</text>
    <path
       d="m 189.5,282 c 0,-6.351 5.149,-11.5 11.5,-11.5 6.351,0 11.5,5.149 11.5,11.5 0,6.351 -5.149,11.5 -11.5,11.5 -6.351,0 -11.5,-5.149 -11.5,-11.5 z"
       stroke="#151617"
       stroke-width="3"
       stroke-linejoin="round"
       stroke-miterlimit="10"
       fill="#ffc000"
       fill-rule="evenodd"
       id="path18" />
    <path
       d="m 189.5,201.5 c 0,-6.627 5.149,-12 11.5,-12 6.351,0 11.5,5.373 11.5,12 0,6.627 -5.149,12 -11.5,12 -6.351,0 -11.5,-5.373 -11.5,-12 z"
       stroke="#151617"
       stroke-width="3"
       stroke-linejoin="round"
       stroke-miterlimit="10"
       fill="#0070c0"
       fill-rule="evenodd"
       id="path19" />
  </g>
</svg>
