<svg width="960" height="720" xmlns="http://www.w3.org/2000/svg" xmlns:xlink="http://www.w3.org/1999/xlink" overflow="hidden"><defs><clipPath id="clip0"><rect x="0" y="0" width="960" height="720"/></clipPath></defs><g clip-path="url(#clip0)"><rect x="0" y="0" width="960" height="720" fill="#D7E4BD"/><rect x="0.500053" y="0.500053" width="960" height="720" stroke="#FFFFFF" stroke-width="2.66667" stroke-linejoin="round" stroke-miterlimit="10" fill="#FFFFFF"/><path d="M478.23 357.745C477.75 357.745 477.33 357.834 476.968 358.014 476.607 358.194 476.304 358.432 476.06 358.729 475.817 359.026 475.628 359.371 475.494 359.766 475.361 360.161 475.286 360.573 475.27 361.002L481.024 361.002C481.048 359.987 480.822 359.19 480.346 358.612 479.871 358.034 479.165 357.745 478.23 357.745ZM489.227 356.233C489.509 356.233 489.79 356.256 490.071 356.303 490.352 356.35 490.606 356.409 490.833 356.479 491.059 356.549 491.253 356.625 491.413 356.707 491.573 356.789 491.694 356.862 491.776 356.924 491.858 356.987 491.913 357.041 491.94 357.088 491.968 357.135 491.987 357.188 491.999 357.246 492.011 357.305 492.022 357.377 492.034 357.463 492.046 357.549 492.052 357.655 492.052 357.78 492.052 357.913 492.046 358.028 492.034 358.125 492.022 358.223 492.003 358.303 491.975 358.366 491.948 358.428 491.915 358.473 491.876 358.5 491.837 358.528 491.794 358.541 491.747 358.541 491.677 358.541 491.575 358.498 491.442 358.413 491.309 358.327 491.138 358.235 490.927 358.137 490.716 358.039 490.468 357.948 490.183 357.862 489.897 357.776 489.571 357.733 489.204 357.733 488.876 357.733 488.587 357.77 488.337 357.844 488.087 357.918 487.882 358.024 487.722 358.161 487.561 358.297 487.44 358.459 487.358 358.647 487.276 358.834 487.235 359.038 487.235 359.256 487.235 359.561 487.313 359.817 487.47 360.024 487.626 360.231 487.829 360.413 488.079 360.569 488.329 360.725 488.614 360.866 488.934 360.991 489.255 361.116 489.581 361.245 489.913 361.377 490.245 361.51 490.573 361.659 490.897 361.823 491.222 361.987 491.509 362.186 491.759 362.42 492.009 362.655 492.21 362.936 492.362 363.264 492.515 363.592 492.591 363.983 492.591 364.436 492.591 364.975 492.491 365.455 492.292 365.877 492.093 366.299 491.809 366.655 491.442 366.944 491.075 367.233 490.638 367.452 490.13 367.6 489.622 367.748 489.063 367.823 488.454 367.823 488.079 367.823 487.722 367.793 487.382 367.735 487.042 367.676 486.737 367.602 486.468 367.512 486.198 367.422 485.97 367.329 485.782 367.231 485.595 367.133 485.458 367.045 485.372 366.967 485.286 366.889 485.224 366.78 485.184 366.639 485.145 366.498 485.126 366.307 485.126 366.065 485.126 365.916 485.134 365.791 485.149 365.69 485.165 365.588 485.184 365.506 485.208 365.444 485.231 365.381 485.265 365.336 485.308 365.309 485.35 365.282 485.399 365.268 485.454 365.268 485.54 365.268 485.667 365.321 485.835 365.426 486.003 365.532 486.21 365.647 486.456 365.772 486.702 365.897 486.993 366.012 487.329 366.118 487.665 366.223 488.052 366.276 488.489 366.276 488.817 366.276 489.114 366.241 489.38 366.17 489.645 366.1 489.876 365.996 490.071 365.86 490.267 365.723 490.417 365.549 490.522 365.338 490.628 365.127 490.681 364.877 490.681 364.588 490.681 364.291 490.604 364.041 490.452 363.838 490.3 363.635 490.099 363.455 489.849 363.299 489.599 363.143 489.317 363.004 489.005 362.883 488.692 362.762 488.37 362.635 488.038 362.502 487.706 362.37 487.382 362.219 487.065 362.051 486.749 361.883 486.466 361.678 486.216 361.436 485.966 361.194 485.765 360.905 485.612 360.569 485.46 360.233 485.384 359.83 485.384 359.362 485.384 358.948 485.464 358.551 485.624 358.172 485.784 357.793 486.024 357.461 486.345 357.176 486.665 356.891 487.065 356.663 487.546 356.491 488.026 356.319 488.587 356.233 489.227 356.233ZM478.329 356.233C479.157 356.233 479.862 356.366 480.444 356.631 481.026 356.897 481.505 357.254 481.88 357.704 482.255 358.153 482.53 358.68 482.706 359.286 482.882 359.891 482.97 360.538 482.97 361.225L482.97 361.577C482.97 361.881 482.893 362.098 482.74 362.227 482.587 362.356 482.412 362.42 482.216 362.42L475.27 362.42C475.27 363.006 475.329 363.534 475.447 364.002 475.565 364.471 475.761 364.873 476.036 365.209 476.311 365.545 476.668 365.803 477.107 365.983 477.547 366.163 478.085 366.252 478.721 366.252 479.223 366.252 479.671 366.211 480.063 366.129 480.456 366.047 480.795 365.955 481.082 365.854 481.368 365.752 481.604 365.661 481.788 365.579 481.973 365.496 482.112 365.455 482.206 365.455 482.261 365.455 482.31 365.469 482.354 365.496 482.397 365.524 482.43 365.565 482.454 365.62 482.477 365.674 482.495 365.75 482.507 365.848 482.518 365.946 482.524 366.065 482.524 366.205 482.524 366.307 482.52 366.395 482.513 366.469 482.505 366.543 482.495 366.61 482.483 366.668 482.472 366.727 482.452 366.78 482.425 366.827 482.397 366.873 482.362 366.918 482.319 366.961 482.276 367.004 482.149 367.075 481.938 367.172 481.727 367.27 481.454 367.366 481.118 367.459 480.782 367.553 480.393 367.637 479.952 367.711 479.511 367.786 479.04 367.823 478.54 367.823 477.673 367.823 476.913 367.702 476.261 367.459 475.608 367.217 475.059 366.858 474.614 366.381 474.169 365.905 473.833 365.307 473.606 364.588 473.38 363.87 473.267 363.034 473.267 362.08 473.267 361.174 473.384 360.36 473.618 359.637 473.852 358.914 474.19 358.301 474.632 357.797 475.073 357.293 475.606 356.907 476.231 356.637 476.856 356.368 477.556 356.233 478.329 356.233ZM463.208 354.1 463.208 359.209 465.177 359.209C465.708 359.209 466.167 359.145 466.554 359.016 466.94 358.887 467.263 358.707 467.52 358.477 467.778 358.246 467.968 357.975 468.089 357.663 468.21 357.35 468.27 357.01 468.27 356.643 468.27 356.049 468.138 355.547 467.872 355.137 467.606 354.727 467.161 354.432 466.536 354.252 466.341 354.198 466.12 354.159 465.874 354.135 465.628 354.112 465.306 354.1 464.907 354.1ZM496.388 353.573C496.583 353.573 496.743 353.58 496.868 353.596 496.993 353.612 497.091 353.637 497.161 353.672 497.231 353.707 497.282 353.748 497.313 353.795 497.345 353.842 497.36 353.893 497.36 353.948L497.36 356.455 500.067 356.455C500.13 356.455 500.184 356.469 500.231 356.496 500.278 356.524 500.319 356.571 500.354 356.637 500.39 356.704 500.415 356.788 500.431 356.889 500.446 356.991 500.454 357.116 500.454 357.264 500.454 357.545 500.419 357.748 500.349 357.873 500.278 357.998 500.184 358.061 500.067 358.061L497.36 358.061 497.36 363.944C497.36 364.67 497.468 365.219 497.683 365.59 497.897 365.961 498.282 366.147 498.837 366.147 499.017 366.147 499.177 366.129 499.317 366.094 499.458 366.059 499.583 366.022 499.692 365.983 499.802 365.944 499.895 365.907 499.974 365.871 500.052 365.836 500.122 365.819 500.184 365.819 500.224 365.819 500.261 365.829 500.296 365.848 500.331 365.868 500.358 365.905 500.378 365.959 500.397 366.014 500.415 366.088 500.431 366.182 500.446 366.276 500.454 366.393 500.454 366.534 500.454 366.76 500.438 366.94 500.407 367.073 500.376 367.205 500.329 367.303 500.267 367.366 500.204 367.428 500.11 367.487 499.985 367.541 499.86 367.596 499.718 367.641 499.558 367.676 499.397 367.711 499.227 367.741 499.048 367.764 498.868 367.788 498.688 367.799 498.509 367.799 497.962 367.799 497.493 367.727 497.102 367.582 496.712 367.438 496.392 367.219 496.142 366.926 495.892 366.633 495.71 366.262 495.597 365.813 495.483 365.364 495.427 364.834 495.427 364.225L495.427 358.061 493.95 358.061C493.833 358.061 493.739 357.998 493.669 357.873 493.599 357.748 493.563 357.545 493.563 357.264 493.563 357.116 493.573 356.991 493.593 356.889 493.612 356.788 493.638 356.704 493.669 356.637 493.7 356.571 493.741 356.524 493.792 356.496 493.843 356.469 493.899 356.455 493.962 356.455L495.427 356.455 495.427 353.948C495.427 353.893 495.44 353.842 495.468 353.795 495.495 353.748 495.546 353.707 495.62 353.672 495.694 353.637 495.794 353.612 495.919 353.596 496.044 353.58 496.2 353.573 496.388 353.573ZM461.942 352.436 465.165 352.436C465.548 352.436 465.866 352.446 466.12 352.465 466.374 352.485 466.602 352.506 466.806 352.53 467.392 352.631 467.909 352.791 468.358 353.01 468.808 353.229 469.184 353.506 469.489 353.842 469.794 354.178 470.022 354.563 470.175 354.996 470.327 355.43 470.403 355.909 470.403 356.432 470.403 356.94 470.335 357.395 470.198 357.797 470.061 358.2 469.864 358.555 469.606 358.864 469.349 359.172 469.04 359.44 468.681 359.666 468.321 359.893 467.919 360.084 467.474 360.241 467.724 360.35 467.95 360.489 468.153 360.657 468.356 360.825 468.546 361.026 468.722 361.26 468.897 361.495 469.063 361.764 469.22 362.069 469.376 362.373 469.532 362.717 469.688 363.1L471.048 366.44C471.157 366.721 471.227 366.918 471.259 367.032 471.29 367.145 471.306 367.233 471.306 367.295 471.306 367.358 471.294 367.413 471.27 367.459 471.247 367.506 471.196 367.545 471.118 367.577 471.04 367.608 470.931 367.631 470.79 367.647 470.649 367.663 470.462 367.67 470.227 367.67 470.024 367.67 469.858 367.663 469.729 367.647 469.6 367.631 469.497 367.606 469.419 367.571 469.341 367.536 469.28 367.487 469.237 367.424 469.194 367.362 469.157 367.284 469.126 367.19L467.731 363.616C467.567 363.209 467.397 362.836 467.222 362.496 467.046 362.157 466.837 361.864 466.595 361.618 466.352 361.371 466.067 361.18 465.739 361.043 465.411 360.907 465.017 360.838 464.556 360.838L463.208 360.838 463.208 367.295C463.208 367.358 463.19 367.413 463.155 367.459 463.12 367.506 463.065 367.543 462.991 367.571 462.917 367.598 462.815 367.621 462.686 367.641 462.558 367.661 462.395 367.67 462.2 367.67 462.005 367.67 461.843 367.661 461.714 367.641 461.585 367.621 461.481 367.598 461.403 367.571 461.325 367.543 461.27 367.506 461.239 367.459 461.208 367.413 461.192 367.358 461.192 367.295L461.192 353.256C461.192 352.952 461.272 352.739 461.433 352.618 461.593 352.496 461.763 352.436 461.942 352.436Z" stroke="#FFFFFF" stroke-linejoin="round" stroke-miterlimit="10" fill="#FFFFFF" fill-rule="evenodd"/><text fill="#000000" fill-opacity="0" font-family="Arial,Arial_MSFontService,sans-serif" font-size="15.3867" x="461.192" y="365.899">Rest</text><path d="M658.5 322.5C658.5 265.062 704.839 218.5 762 218.5 819.161 218.5 865.5 265.062 865.5 322.5 865.5 379.938 819.161 426.5 762 426.5 704.839 426.5 658.5 379.938 658.5 322.5Z" stroke="#1C334E" stroke-width="2.66667" stroke-linejoin="round" stroke-miterlimit="10" fill="#D9D9D9" fill-rule="evenodd"/><rect x="60.5001" y="388.5" width="813" height="133" stroke="#1C334E" stroke-width="2.66667" stroke-linejoin="round" stroke-miterlimit="10" fill="#D9D9D9"/><rect x="79.5001" y="407.5" width="775" height="95" stroke="#1C334E" stroke-width="2.66667" stroke-linejoin="round" stroke-miterlimit="10" fill="#76B900"/><path d="M66.5001 247.5C66.5001 190.062 113.062 143.5 170.5 143.5 227.938 143.5 274.5 190.062 274.5 247.5 274.5 304.938 227.938 351.5 170.5 351.5 113.062 351.5 66.5001 304.938 66.5001 247.5Z" stroke="#1C334E" stroke-width="2.66667" stroke-linejoin="round" stroke-miterlimit="10" fill="#D9D9D9" fill-rule="evenodd"/><path d="M85.5001 247.5C85.5001 200.556 123.556 162.5 170.5 162.5 217.444 162.5 255.5 200.556 255.5 247.5 255.5 294.444 217.444 332.5 170.5 332.5 123.556 332.5 85.5001 294.444 85.5001 247.5Z" stroke="#1C334E" stroke-width="2.66667" stroke-linejoin="round" stroke-miterlimit="10" fill="#76B900" fill-rule="evenodd"/><path d="M94.5001 247C94.5001 205.303 128.526 171.5 170.5 171.5 212.474 171.5 246.5 205.303 246.5 247 246.5 288.698 212.474 322.5 170.5 322.5 128.526 322.5 94.5001 288.698 94.5001 247Z" stroke="#1C334E" stroke-width="2.66667" stroke-linejoin="round" stroke-miterlimit="10" fill="#96ADCE" fill-rule="evenodd"/><rect x="89.5001" y="417.5" width="756" height="75" stroke="#1C334E" stroke-width="2.66667" stroke-linejoin="round" stroke-miterlimit="10" fill="#96ADCE"/><path d="M676.5 322.5C676.5 275.556 714.78 237.5 762 237.5 809.22 237.5 847.5 275.556 847.5 322.5 847.5 369.444 809.22 407.5 762 407.5 714.78 407.5 676.5 369.444 676.5 322.5Z" stroke="#1C334E" stroke-width="2.66667" stroke-linejoin="round" stroke-miterlimit="10" fill="#76B900" fill-rule="evenodd"/><path d="M686.5 323C686.5 281.303 720.303 247.5 762 247.5 803.698 247.5 837.5 281.303 837.5 323 837.5 364.698 803.698 398.5 762 398.5 720.303 398.5 686.5 364.698 686.5 323Z" stroke="#1C334E" stroke-width="2.66667" stroke-linejoin="round" stroke-miterlimit="10" fill="#96ADCE" fill-rule="evenodd"/><path d="M361.5 293C361.5 235.839 408.062 189.5 465.5 189.5 522.938 189.5 569.5 235.839 569.5 293 569.5 350.161 522.938 396.5 465.5 396.5 408.062 396.5 361.5 350.161 361.5 293Z" stroke="#1C334E" stroke-width="2.66667" stroke-linejoin="round" stroke-miterlimit="10" fill="#D9D9D9" fill-rule="evenodd"/><path d="M380.5 292.5C380.5 245.556 418.556 207.5 465.5 207.5 512.444 207.5 550.5 245.556 550.5 292.5 550.5 339.444 512.444 377.5 465.5 377.5 418.556 377.5 380.5 339.444 380.5 292.5Z" stroke="#1C334E" stroke-width="2.66667" stroke-linejoin="round" stroke-miterlimit="10" fill="#76B900" fill-rule="evenodd"/><path d="M389.5 293C389.5 251.303 423.303 217.5 465 217.5 506.698 217.5 540.5 251.303 540.5 293 540.5 334.698 506.698 368.5 465 368.5 423.303 368.5 389.5 334.698 389.5 293Z" stroke="#1C334E" stroke-width="2.66667" stroke-linejoin="round" stroke-miterlimit="10" fill="#96ADCE" fill-rule="evenodd"/><path d="M0 0 9.44882 0.000104987" stroke="#76B900" stroke-width="8" stroke-linejoin="round" stroke-miterlimit="10" fill="none" fill-rule="evenodd" transform="matrix(-1 0 0 1 255.449 117)"/><text font-family="Calibri,Calibri_MSFontService,sans-serif" font-weight="400" font-size="24" transform="translate(239.22 67)">Margin</text><path d="M217.5 62.0001C217.5 57.8579 220.858 54.5001 225 54.5001 229.142 54.5001 232.5 57.8579 232.5 62.0001 232.5 66.1422 229.142 69.5001 225 69.5001 220.858 69.5001 217.5 66.1422 217.5 62.0001Z" stroke="#1C334E" stroke-width="2.66667" stroke-linejoin="round" stroke-miterlimit="10" fill="#76B900" fill-rule="evenodd"/><path d="M0 0 18.8976 0.000104987" stroke="#D9D9D9" stroke-width="8" stroke-linejoin="round" stroke-miterlimit="10" fill="none" fill-rule="evenodd" transform="matrix(-1 0 0 1 568.898 117)"/><text font-family="Calibri,Calibri_MSFontService,sans-serif" font-weight="400" font-size="24" transform="translate(405.982 66)">Gap</text><text font-family="Calibri,Calibri_MSFontService,sans-serif" font-weight="400" font-size="24" transform="translate(450.816 66)">(</text><text font-family="Calibri,Calibri_MSFontService,sans-serif" font-weight="400" font-size="24" transform="translate(458.149 66)">added</text><text font-family="Calibri,Calibri_MSFontService,sans-serif" font-weight="400" font-size="24" transform="translate(525.149 66)">on top of</text><text font-family="Calibri,Calibri_MSFontService,sans-serif" font-weight="400" font-size="24" transform="translate(471.862 95)">Margin)</text><path d="M371.5 59.0001C371.5 54.8579 374.858 51.5001 379 51.5001 383.142 51.5001 386.5 54.8579 386.5 59.0001 386.5 63.1422 383.142 66.5001 379 66.5001 374.858 66.5001 371.5 63.1422 371.5 59.0001Z" stroke="#1C334E" stroke-width="2.66667" stroke-linejoin="round" stroke-miterlimit="10" fill="#D9D9D9" fill-rule="evenodd"/><text font-family="Calibri,Calibri_MSFontService,sans-serif" font-weight="400" font-size="24" transform="translate(87.5766 575)">No contacts are</text><text font-family="Calibri,Calibri_MSFontService,sans-serif" font-weight="400" font-size="24" transform="translate(114.15 604)">generated</text><text font-family="Calibri,Calibri_MSFontService,sans-serif" font-weight="400" font-size="24" transform="translate(404.041 558)">Contacts are</text><text font-family="Calibri,Calibri_MSFontService,sans-serif" font-weight="400" font-size="24" transform="translate(395.795 587)">generated but</text><text font-family="Calibri,Calibri_MSFontService,sans-serif" font-weight="400" font-size="24" transform="translate(416.575 616)">not active</text><text font-family="Calibri,Calibri_MSFontService,sans-serif" font-weight="400" font-size="24" transform="translate(647.704 561)">Contacts are generated</text><text font-family="Calibri,Calibri_MSFontService,sans-serif" font-weight="400" font-size="24" transform="translate(684.224 590)">and are actively</text><text font-family="Calibri,Calibri_MSFontService,sans-serif" font-weight="400" font-size="24" transform="translate(661.784 619)">supporting the body</text><path d="M654.5 59.0001C654.5 54.8579 657.858 51.5001 662 51.5001 666.142 51.5001 669.5 54.8579 669.5 59.0001 669.5 63.1422 666.142 66.5001 662 66.5001 657.858 66.5001 654.5 63.1422 654.5 59.0001Z" stroke="#1C334E" stroke-width="2.66667" stroke-linejoin="round" stroke-miterlimit="10" fill="#96ADCE" fill-rule="evenodd"/><text font-family="Calibri,Calibri_MSFontService,sans-serif" font-weight="400" font-size="24" transform="translate(676.491 65)">The body’s shape</text><text font-family="Calibri,Calibri_MSFontService,sans-serif" font-weight="400" font-size="24" transform="translate(705.544 94)">(no offsets)</text><path d="M0 0 0.000104987 137.558" stroke="#000000" stroke-width="3" stroke-linejoin="round" stroke-miterlimit="10" fill="none" fill-rule="evenodd" transform="matrix(1 0 0 -1 246.5 247.058)"/><path d="M0 0 0.000104987 137.558" stroke="#000000" stroke-width="3" stroke-linejoin="round" stroke-miterlimit="10" fill="none" fill-rule="evenodd" transform="matrix(1 0 0 -1 255.5 247.058)"/><path d="M0 0 0.000104987 190.539" stroke="#000000" stroke-width="3" stroke-linejoin="round" stroke-miterlimit="10" fill="none" fill-rule="evenodd" transform="matrix(1 0 0 -1 550.5 300.039)"/><path d="M0 0 0.000104987 190.539" stroke="#000000" stroke-width="3" stroke-linejoin="round" stroke-miterlimit="10" fill="none" fill-rule="evenodd" transform="matrix(1 0 0 -1 569.5 300.039)"/></g></svg>